<svg width="512" height="512" viewBox="0 0 512 512" fill="none" xmlns="http://www.w3.org/2000/svg">
<g clip-path="url(#clip0)">
<path d="M507.606 245.394L438.903 176.691C434.613 172.4 428.161 171.119 422.556 173.439C416.951 175.761 413.296 181.23 413.296 187.297V207.193H304.808V98.704H324.704C330.771 98.704 336.24 95.05 338.562 89.444C340.883 83.839 339.6 77.387 335.31 73.097L266.606 4.394C263.794 1.58 259.979 0 256 0C252.021 0 248.206 1.58 245.394 4.394L176.69 73.098C172.4 77.388 171.117 83.839 173.438 89.445C175.76 95.05 181.229 98.705 187.296 98.705H207.192V207.194H98.704V187.298C98.704 181.231 95.05 175.762 89.444 173.44C83.841 171.12 77.387 172.401 73.097 176.692L4.394 245.394C1.58 248.206 0 252.022 0 256C0 259.978 1.58 263.794 4.394 266.606L73.098 335.31C75.967 338.18 79.804 339.705 83.707 339.704C85.64 339.704 87.589 339.331 89.444 338.562C95.049 336.24 98.704 330.771 98.704 324.704V304.808H207.193V413.297H187.297C181.23 413.297 175.761 416.951 173.439 422.557C171.118 428.162 172.401 434.614 176.691 438.904L245.394 507.607C248.323 510.537 252.162 512.001 256 512.001C259.838 512.001 263.678 510.536 266.606 507.607L335.31 438.904C339.6 434.614 340.883 428.163 338.562 422.557C336.24 416.952 330.771 413.297 324.704 413.297H304.808V304.808H413.297V324.704C413.297 330.771 416.951 336.24 422.557 338.562C424.413 339.331 426.362 339.704 428.294 339.704C432.197 339.704 436.034 338.18 438.903 335.31L507.606 266.606C513.465 260.749 513.465 251.251 507.606 245.394V245.394Z" fill="#7B7B7B"/>
</g>
<defs>
<clipPath id="clip0">
<rect width="512" height="512" fill="white"/>
</clipPath>
</defs>
</svg>
