<svg width="144" height="145" viewBox="0 0 144 145" fill="none" xmlns="http://www.w3.org/2000/svg">
<path d="M138.14 4.87423L137.966 4.71546C134.637 1.67477 130.322 0 125.815 0C120.763 0 115.912 2.13864 112.507 5.86707L48.1064 76.3722C47.5194 77.0148 47.0742 77.773 46.799 78.5983L39.2264 101.3C38.3509 103.924 38.7903 106.827 40.4017 109.064C42.0259 111.318 44.6425 112.664 47.4017 112.664H47.4021C48.5956 112.664 49.7621 112.419 50.8686 111.934L72.7939 102.343C73.5911 101.994 74.3062 101.482 74.8927 100.84L139.293 30.3348C145.995 22.9986 145.478 11.5779 138.14 4.87423ZM53.7351 97.1062L58.1787 83.7851L58.5534 83.3747L66.9753 91.0671L66.6006 91.4775L53.7351 97.1062ZM130.111 21.9473L75.3628 81.8853L66.9409 74.193L121.689 14.2546C122.76 13.0822 124.225 12.4364 125.816 12.4364C127.211 12.4364 128.547 12.9554 129.58 13.8997L129.754 14.0585C132.028 16.135 132.188 19.6739 130.111 21.9473Z" fill="#42B983"/>
<path d="M125.646 57.3682C122.212 57.3682 119.428 60.1523 119.428 63.5864V116.378C119.428 125.097 112.334 132.191 103.614 132.191H28.2501C19.5301 132.191 12.4364 125.097 12.4364 116.378V41.6258C12.4364 32.9062 19.5305 25.8121 28.2501 25.8121H82.7989C86.233 25.8121 89.0171 23.028 89.0171 19.5939C89.0171 16.1598 86.233 13.3757 82.7989 13.3757H28.2501C12.6727 13.3757 0 26.0488 0 41.6258V116.377C0 131.954 12.6731 144.627 28.2501 144.627H103.614C119.191 144.627 131.864 131.954 131.864 116.377V63.5864C131.864 60.1523 129.08 57.3682 125.646 57.3682Z" fill="#42B983"/>
</svg>
