<svg width="277" height="259" viewBox="0 0 277 259" fill="none" xmlns="http://www.w3.org/2000/svg">
<g filter="url(#filter0_d)">
<path d="M134.195 77.4V111H126.371L111.539 93.096V111H102.227V77.4H110.051L124.883 95.304V77.4H134.195ZM157.843 111.672C154.291 111.672 151.091 110.92 148.243 109.416C145.427 107.912 143.203 105.832 141.571 103.176C139.971 100.52 139.171 97.528 139.171 94.2C139.171 90.872 139.971 87.88 141.571 85.224C143.203 82.568 145.427 80.488 148.243 78.984C151.091 77.48 154.291 76.728 157.843 76.728C161.395 76.728 164.579 77.48 167.395 78.984C170.243 80.488 172.467 82.568 174.067 85.224C175.699 87.88 176.515 90.872 176.515 94.2C176.515 97.528 175.699 100.52 174.067 103.176C172.467 105.832 170.243 107.912 167.395 109.416C164.579 110.92 161.395 111.672 157.843 111.672ZM157.843 103.8C159.539 103.8 161.075 103.4 162.451 102.6C163.827 101.8 164.915 100.68 165.715 99.24C166.515 97.768 166.915 96.088 166.915 94.2C166.915 92.312 166.515 90.648 165.715 89.208C164.915 87.736 163.827 86.6 162.451 85.8C161.075 85 159.539 84.6 157.843 84.6C156.147 84.6 154.611 85 153.235 85.8C151.859 86.6 150.771 87.736 149.971 89.208C149.171 90.648 148.771 92.312 148.771 94.2C148.771 96.088 149.171 97.768 149.971 99.24C150.771 100.68 151.859 101.8 153.235 102.6C154.611 103.4 156.147 103.8 157.843 103.8ZM61.0709 148.4H70.5749V182H61.0709V148.4ZM110.793 155.552C113.993 155.552 116.537 156.512 118.425 158.432C120.345 160.352 121.305 163.248 121.305 167.12V182H112.185V168.608C112.185 166.784 111.833 165.44 111.129 164.576C110.457 163.712 109.497 163.28 108.249 163.28C106.873 163.28 105.769 163.76 104.937 164.72C104.105 165.68 103.689 167.136 103.689 169.088V182H94.5686V168.608C94.5686 165.056 93.2566 163.28 90.6326 163.28C89.2246 163.28 88.1046 163.76 87.2726 164.72C86.4406 165.68 86.0246 167.136 86.0246 169.088V182H76.9046V155.984H85.5926V158.72C86.5526 157.664 87.6886 156.88 89.0006 156.368C90.3446 155.824 91.8006 155.552 93.3686 155.552C95.1926 155.552 96.8246 155.888 98.2646 156.56C99.7046 157.232 100.873 158.256 101.769 159.632C102.793 158.32 104.089 157.312 105.657 156.608C107.225 155.904 108.937 155.552 110.793 155.552ZM138.149 155.552C142.469 155.552 145.765 156.544 148.037 158.528C150.309 160.48 151.445 163.488 151.445 167.552V182H142.949V178.64C141.637 181.168 139.077 182.432 135.269 182.432C133.253 182.432 131.509 182.08 130.037 181.376C128.565 180.672 127.445 179.728 126.677 178.544C125.941 177.328 125.573 175.952 125.573 174.416C125.573 171.952 126.517 170.048 128.405 168.704C130.293 167.328 133.205 166.64 137.141 166.64H142.325C142.165 163.888 140.325 162.512 136.805 162.512C135.557 162.512 134.293 162.72 133.013 163.136C131.733 163.52 130.645 164.064 129.749 164.768L126.677 158.576C128.117 157.616 129.861 156.88 131.909 156.368C133.989 155.824 136.069 155.552 138.149 155.552ZM137.813 176.672C138.869 176.672 139.797 176.416 140.597 175.904C141.397 175.392 141.973 174.64 142.325 173.648V171.392H138.389C135.733 171.392 134.405 172.272 134.405 174.032C134.405 174.832 134.709 175.472 135.317 175.952C135.925 176.432 136.757 176.672 137.813 176.672ZM185.56 155.984V177.248C185.56 182.08 184.248 185.696 181.624 188.096C179 190.528 175.224 191.744 170.296 191.744C167.736 191.744 165.336 191.456 163.096 190.88C160.856 190.304 158.952 189.456 157.384 188.336L160.696 181.952C161.752 182.816 163.08 183.488 164.68 183.968C166.312 184.48 167.912 184.736 169.48 184.736C171.88 184.736 173.64 184.208 174.76 183.152C175.88 182.096 176.44 180.528 176.44 178.448V177.584C174.68 179.632 172.104 180.656 168.712 180.656C166.408 180.656 164.28 180.144 162.328 179.12C160.376 178.064 158.824 176.592 157.672 174.704C156.52 172.784 155.944 170.576 155.944 168.08C155.944 165.616 156.52 163.44 157.672 161.552C158.824 159.632 160.376 158.16 162.328 157.136C164.28 156.08 166.408 155.552 168.712 155.552C172.424 155.552 175.144 156.752 176.872 159.152V155.984H185.56ZM170.872 173.408C172.504 173.408 173.848 172.912 174.904 171.92C175.992 170.928 176.536 169.648 176.536 168.08C176.536 166.512 176.008 165.248 174.952 164.288C173.896 163.296 172.536 162.8 170.872 162.8C169.208 162.8 167.832 163.296 166.744 164.288C165.688 165.248 165.16 166.512 165.16 168.08C165.16 169.648 165.704 170.928 166.792 171.92C167.88 172.912 169.24 173.408 170.872 173.408ZM218.012 169.04C218.012 169.104 217.964 169.856 217.868 171.296H198.956C199.34 172.64 200.076 173.68 201.164 174.416C202.284 175.12 203.676 175.472 205.34 175.472C206.588 175.472 207.66 175.296 208.556 174.944C209.484 174.592 210.412 174.016 211.34 173.216L216.14 178.208C213.612 181.024 209.916 182.432 205.052 182.432C202.012 182.432 199.34 181.856 197.036 180.704C194.732 179.552 192.94 177.952 191.66 175.904C190.412 173.856 189.788 171.536 189.788 168.944C189.788 166.384 190.396 164.096 191.612 162.08C192.86 160.032 194.572 158.432 196.748 157.28C198.924 156.128 201.372 155.552 204.092 155.552C206.684 155.552 209.036 156.096 211.148 157.184C213.26 158.24 214.924 159.792 216.14 161.84C217.388 163.856 218.012 166.256 218.012 169.04ZM204.14 162.032C202.732 162.032 201.548 162.432 200.588 163.232C199.66 164.032 199.068 165.12 198.812 166.496H209.468C209.212 165.12 208.604 164.032 207.644 163.232C206.716 162.432 205.548 162.032 204.14 162.032Z" fill="black"/>
<path d="M134.195 77.4H135.195V76.4H134.195V77.4ZM134.195 111V112H135.195V111H134.195ZM126.371 111L125.601 111.638L125.901 112H126.371V111ZM111.539 93.096L112.309 92.4581L110.539 90.3214V93.096H111.539ZM111.539 111V112H112.539V111H111.539ZM102.227 111H101.227V112H102.227V111ZM102.227 77.4V76.4H101.227V77.4H102.227ZM110.051 77.4L110.821 76.762L110.521 76.4H110.051V77.4ZM124.883 95.304L124.113 95.9419L125.883 98.0786V95.304H124.883ZM124.883 77.4V76.4H123.883V77.4H124.883ZM133.195 77.4V111H135.195V77.4H133.195ZM134.195 110H126.371V112H134.195V110ZM127.141 110.362L112.309 92.4581L110.769 93.7339L125.601 111.638L127.141 110.362ZM110.539 93.096V111H112.539V93.096H110.539ZM111.539 110H102.227V112H111.539V110ZM103.227 111V77.4H101.227V111H103.227ZM102.227 78.4H110.051V76.4H102.227V78.4ZM109.281 78.0379L124.113 95.9419L125.653 94.6661L110.821 76.762L109.281 78.0379ZM125.883 95.304V77.4H123.883V95.304H125.883ZM124.883 78.4H134.195V76.4H124.883V78.4ZM148.243 109.416L147.772 110.298L147.776 110.3L148.243 109.416ZM141.571 103.176L140.714 103.692L140.719 103.7L141.571 103.176ZM141.571 85.224L140.719 84.7005L140.714 84.708L141.571 85.224ZM148.243 78.984L147.776 78.0997L147.772 78.1019L148.243 78.984ZM167.395 78.984L166.924 79.8661L166.928 79.8683L167.395 78.984ZM174.067 85.224L173.21 85.74L173.215 85.7475L174.067 85.224ZM174.067 103.176L173.215 102.652L173.21 102.66L174.067 103.176ZM167.395 109.416L166.928 108.532L166.924 108.534L167.395 109.416ZM162.451 102.6L162.954 103.465L162.954 103.465L162.451 102.6ZM165.715 99.24L166.589 99.7257L166.594 99.7175L165.715 99.24ZM165.715 89.208L164.836 89.6855L164.841 89.6936L165.715 89.208ZM162.451 85.8L162.954 84.9355L162.954 84.9355L162.451 85.8ZM153.235 85.8L152.732 84.9355L152.732 84.9355L153.235 85.8ZM149.971 89.208L150.845 89.6937L150.85 89.6855L149.971 89.208ZM149.971 99.24L149.092 99.7175L149.097 99.7256L149.971 99.24ZM153.235 102.6L153.738 101.735L153.738 101.735L153.235 102.6ZM157.843 110.672C154.437 110.672 151.4 109.952 148.71 108.532L147.776 110.3C150.782 111.888 154.145 112.672 157.843 112.672V110.672ZM148.714 108.534C146.051 107.111 143.96 105.154 142.423 102.652L140.719 103.7C142.446 106.51 144.803 108.713 147.772 110.298L148.714 108.534ZM142.428 102.66C140.928 100.171 140.171 97.36 140.171 94.2H138.171C138.171 97.696 139.014 100.869 140.714 103.692L142.428 102.66ZM140.171 94.2C140.171 91.04 140.928 88.2288 142.428 85.74L140.714 84.708C139.014 87.5312 138.171 90.704 138.171 94.2H140.171ZM142.423 85.7475C143.96 83.2465 146.051 81.2886 148.714 79.8661L147.772 78.1019C144.803 79.6874 142.446 81.8895 140.719 84.7005L142.423 85.7475ZM148.71 79.8683C151.4 78.4479 154.437 77.728 157.843 77.728V75.728C154.145 75.728 150.782 76.5121 147.776 78.0997L148.71 79.8683ZM157.843 77.728C161.25 77.728 164.269 78.4479 166.924 79.8661L167.866 78.1019C164.889 76.5121 161.541 75.728 157.843 75.728V77.728ZM166.928 79.8683C169.622 81.2907 171.708 83.2461 173.21 85.74L174.924 84.708C173.226 81.8899 170.864 79.6853 167.862 78.0997L166.928 79.8683ZM173.215 85.7475C174.744 88.2353 175.515 91.0438 175.515 94.2H177.515C177.515 90.7002 176.654 87.5247 174.919 84.7005L173.215 85.7475ZM175.515 94.2C175.515 97.3562 174.744 100.165 173.215 102.652L174.919 103.7C176.654 100.875 177.515 97.6998 177.515 94.2H175.515ZM173.21 102.66C171.708 105.154 169.622 107.109 166.928 108.532L167.862 110.3C170.864 108.715 173.226 106.51 174.924 103.692L173.21 102.66ZM166.924 108.534C164.269 109.952 161.25 110.672 157.843 110.672V112.672C161.541 112.672 164.889 111.888 167.866 110.298L166.924 108.534ZM157.843 104.8C159.704 104.8 161.415 104.359 162.954 103.465L161.948 101.735C160.735 102.441 159.375 102.8 157.843 102.8V104.8ZM162.954 103.465C164.491 102.571 165.705 101.317 166.589 99.7256L164.841 98.7544C164.125 100.043 163.163 101.029 161.948 101.735L162.954 103.465ZM166.594 99.7175C167.483 98.0812 167.915 96.2333 167.915 94.2H165.915C165.915 95.9427 165.547 97.4548 164.836 98.7625L166.594 99.7175ZM167.915 94.2C167.915 92.1672 167.483 90.3314 166.589 88.7224L164.841 89.6936C165.547 90.9646 165.915 92.4568 165.915 94.2H167.915ZM166.594 88.7305C165.711 87.1063 164.497 85.8325 162.954 84.9355L161.948 86.6645C163.158 87.3675 164.119 88.3657 164.836 89.6855L166.594 88.7305ZM162.954 84.9355C161.415 84.0409 159.704 83.6 157.843 83.6V85.6C159.375 85.6 160.735 85.9591 161.948 86.6645L162.954 84.9355ZM157.843 83.6C155.983 83.6 154.271 84.0409 152.732 84.9355L153.738 86.6645C154.951 85.9591 156.312 85.6 157.843 85.6V83.6ZM152.732 84.9355C151.19 85.8325 149.975 87.1063 149.092 88.7305L150.85 89.6855C151.567 88.3657 152.529 87.3675 153.738 86.6645L152.732 84.9355ZM149.097 88.7224C148.203 90.3314 147.771 92.1672 147.771 94.2H149.771C149.771 92.4568 150.139 90.9646 150.845 89.6936L149.097 88.7224ZM147.771 94.2C147.771 96.2333 148.203 98.0812 149.092 99.7175L150.85 98.7625C150.139 97.4548 149.771 95.9427 149.771 94.2H147.771ZM149.097 99.7256C149.981 101.317 151.195 102.571 152.732 103.465L153.738 101.735C152.523 101.029 151.561 100.043 150.845 98.7544L149.097 99.7256ZM152.732 103.465C154.271 104.359 155.983 104.8 157.843 104.8V102.8C156.312 102.8 154.951 102.441 153.738 101.735L152.732 103.465ZM61.0709 148.4V147.4H60.0709V148.4H61.0709ZM70.5749 148.4H71.5749V147.4H70.5749V148.4ZM70.5749 182V183H71.5749V182H70.5749ZM61.0709 182H60.0709V183H61.0709V182ZM61.0709 149.4H70.5749V147.4H61.0709V149.4ZM69.5749 148.4V182H71.5749V148.4H69.5749ZM70.5749 181H61.0709V183H70.5749V181ZM62.0709 182V148.4H60.0709V182H62.0709ZM118.425 158.432L117.712 159.133L117.717 159.139L118.425 158.432ZM121.305 182V183H122.305V182H121.305ZM112.185 182H111.185V183H112.185V182ZM111.129 164.576L110.339 165.19L110.346 165.199L110.353 165.208L111.129 164.576ZM104.937 164.72L105.692 165.375L105.692 165.375L104.937 164.72ZM103.689 182V183H104.689V182H103.689ZM94.5686 182H93.5686V183H94.5686V182ZM86.0246 182V183H87.0246V182H86.0246ZM76.9046 182H75.9046V183H76.9046V182ZM76.9046 155.984V154.984H75.9046V155.984H76.9046ZM85.5926 155.984H86.5926V154.984H85.5926V155.984ZM85.5926 158.72H84.5926V161.307L86.3325 159.393L85.5926 158.72ZM89.0006 156.368L89.3641 157.3L89.3758 157.295L89.0006 156.368ZM98.2646 156.56L98.6875 155.654L98.6874 155.654L98.2646 156.56ZM101.769 159.632L100.931 160.178L101.695 161.352L102.557 160.247L101.769 159.632ZM105.657 156.608L105.247 155.696L105.247 155.696L105.657 156.608ZM110.793 156.552C113.779 156.552 116.047 157.44 117.712 159.133L119.138 157.731C117.027 155.584 114.206 154.552 110.793 154.552V156.552ZM117.717 159.139C119.382 160.804 120.305 163.399 120.305 167.12H122.305C122.305 163.097 121.307 159.9 119.132 157.725L117.717 159.139ZM120.305 167.12V182H122.305V167.12H120.305ZM121.305 181H112.185V183H121.305V181ZM113.185 182V168.608H111.185V182H113.185ZM113.185 168.608C113.185 166.69 112.82 165.069 111.904 163.944L110.353 165.208C110.845 165.811 111.185 166.878 111.185 168.608H113.185ZM111.918 163.962C111.028 162.818 109.756 162.28 108.249 162.28V164.28C109.237 164.28 109.885 164.606 110.339 165.19L111.918 163.962ZM108.249 162.28C106.61 162.28 105.22 162.866 104.181 164.065L105.692 165.375C106.317 164.654 107.135 164.28 108.249 164.28V162.28ZM104.181 164.065C103.126 165.283 102.689 167.019 102.689 169.088H104.689C104.689 167.253 105.083 166.077 105.692 165.375L104.181 164.065ZM102.689 169.088V182H104.689V169.088H102.689ZM103.689 181H94.5686V183H103.689V181ZM95.5686 182V168.608H93.5686V182H95.5686ZM95.5686 168.608C95.5686 166.738 95.2284 165.154 94.3889 164.018C93.5075 162.825 92.1943 162.28 90.6326 162.28V164.28C91.6948 164.28 92.3496 164.623 92.7802 165.206C93.2527 165.846 93.5686 166.926 93.5686 168.608H95.5686ZM90.6326 162.28C88.9698 162.28 87.5608 162.861 86.5169 164.065L88.0283 165.375C88.6484 164.659 89.4793 164.28 90.6326 164.28V162.28ZM86.5169 164.065C85.4617 165.283 85.0246 167.019 85.0246 169.088H87.0246C87.0246 167.253 87.4194 166.077 88.0283 165.375L86.5169 164.065ZM85.0246 169.088V182H87.0246V169.088H85.0246ZM86.0246 181H76.9046V183H86.0246V181ZM77.9046 182V155.984H75.9046V182H77.9046ZM76.9046 156.984H85.5926V154.984H76.9046V156.984ZM84.5926 155.984V158.72H86.5926V155.984H84.5926ZM86.3325 159.393C87.1901 158.449 88.1978 157.755 89.3641 157.3L88.637 155.436C87.1793 156.005 85.915 156.879 84.8526 158.047L86.3325 159.393ZM89.3758 157.295C90.5911 156.803 91.9186 156.552 93.3686 156.552V154.552C91.6825 154.552 90.098 154.845 88.6254 155.441L89.3758 157.295ZM93.3686 156.552C95.068 156.552 96.5523 156.864 97.8417 157.466L98.6874 155.654C97.0968 154.912 95.3171 154.552 93.3686 154.552V156.552ZM97.8417 157.466C99.1065 158.056 100.133 158.953 100.931 160.178L102.607 159.086C101.612 157.559 100.303 156.408 98.6875 155.654L97.8417 157.466ZM102.557 160.247C103.477 159.068 104.642 158.16 106.066 157.52L105.247 155.696C103.535 156.464 102.108 157.572 100.98 159.017L102.557 160.247ZM106.066 157.52C107.495 156.879 109.066 156.552 110.793 156.552V154.552C108.807 154.552 106.954 154.929 105.247 155.696L106.066 157.52ZM148.037 158.528L147.379 159.281L147.385 159.287L148.037 158.528ZM151.445 182V183H152.445V182H151.445ZM142.949 182H141.949V183H142.949V182ZM142.949 178.64H143.949L142.061 178.179L142.949 178.64ZM130.037 181.376L129.605 182.278L129.605 182.278L130.037 181.376ZM126.677 178.544L125.821 179.062L125.829 179.075L125.838 179.088L126.677 178.544ZM128.405 168.704L128.985 169.519L128.994 169.512L128.405 168.704ZM142.325 166.64V167.64H143.385L143.323 166.582L142.325 166.64ZM133.013 163.136L133.3 164.094L133.311 164.091L133.322 164.087L133.013 163.136ZM129.749 164.768L128.853 165.212L129.4 166.314L130.367 165.554L129.749 164.768ZM126.677 158.576L126.122 157.744L125.39 158.232L125.781 159.02L126.677 158.576ZM131.909 156.368L132.151 157.338L132.162 157.335L131.909 156.368ZM140.597 175.904L141.136 176.746L141.136 176.746L140.597 175.904ZM142.325 173.648L143.267 173.982L143.325 173.82V173.648H142.325ZM142.325 171.392H143.325V170.392H142.325V171.392ZM135.317 175.952L134.697 176.737L134.697 176.737L135.317 175.952ZM138.149 156.552C142.33 156.552 145.354 157.513 147.379 159.281L148.695 157.775C146.175 155.575 142.608 154.552 138.149 154.552V156.552ZM147.385 159.287C149.365 160.987 150.445 163.67 150.445 167.552H152.445C152.445 163.306 151.253 159.973 148.688 157.769L147.385 159.287ZM150.445 167.552V182H152.445V167.552H150.445ZM151.445 181H142.949V183H151.445V181ZM143.949 182V178.64H141.949V182H143.949ZM142.061 178.179C140.979 180.264 138.849 181.432 135.269 181.432V183.432C139.304 183.432 142.294 182.072 143.836 179.101L142.061 178.179ZM135.269 181.432C133.368 181.432 131.778 181.1 130.468 180.474L129.605 182.278C131.24 183.06 133.138 183.432 135.269 183.432V181.432ZM130.468 180.474C129.136 179.837 128.169 179.006 127.516 178L125.838 179.088C126.721 180.45 127.994 181.507 129.605 182.278L130.468 180.474ZM127.532 178.026C126.898 176.979 126.573 175.785 126.573 174.416H124.573C124.573 176.119 124.983 177.677 125.821 179.062L127.532 178.026ZM126.573 174.416C126.573 172.251 127.379 170.662 128.985 169.519L127.825 167.889C125.654 169.434 124.573 171.653 124.573 174.416H126.573ZM128.994 169.512C130.629 168.321 133.286 167.64 137.141 167.64V165.64C133.124 165.64 129.957 166.335 127.816 167.896L128.994 169.512ZM137.141 167.64H142.325V165.64H137.141V167.64ZM143.323 166.582C143.23 164.976 142.627 163.643 141.424 162.743C140.261 161.873 138.672 161.512 136.805 161.512V163.512C138.457 163.512 139.549 163.839 140.226 164.345C140.862 164.821 141.26 165.552 141.326 166.698L143.323 166.582ZM136.805 161.512C135.444 161.512 134.076 161.739 132.704 162.185L133.322 164.087C134.51 163.701 135.67 163.512 136.805 163.512V161.512ZM132.725 162.178C131.346 162.592 130.141 163.188 129.131 163.982L130.367 165.554C131.149 164.94 132.12 164.448 133.3 164.094L132.725 162.178ZM130.645 164.324L127.573 158.132L125.781 159.02L128.853 165.212L130.645 164.324ZM127.232 159.408C128.558 158.524 130.191 157.828 132.151 157.338L131.666 155.398C129.531 155.932 127.676 156.708 126.122 157.744L127.232 159.408ZM132.162 157.335C134.162 156.812 136.157 156.552 138.149 156.552V154.552C135.981 154.552 133.816 154.836 131.656 155.401L132.162 157.335ZM137.813 177.672C139.038 177.672 140.157 177.373 141.136 176.746L140.058 175.062C139.436 175.459 138.7 175.672 137.813 175.672V177.672ZM141.136 176.746C142.143 176.101 142.849 175.16 143.267 173.982L141.382 173.314C141.096 174.12 140.65 174.683 140.058 175.062L141.136 176.746ZM143.325 173.648V171.392H141.325V173.648H143.325ZM142.325 170.392H138.389V172.392H142.325V170.392ZM138.389 170.392C136.982 170.392 135.753 170.619 134.848 171.218C133.872 171.865 133.405 172.858 133.405 174.032H135.405C135.405 173.446 135.602 173.119 135.953 172.886C136.377 172.605 137.14 172.392 138.389 172.392V170.392ZM133.405 174.032C133.405 175.126 133.84 176.06 134.697 176.737L135.936 175.167C135.578 174.884 135.405 174.538 135.405 174.032H133.405ZM134.697 176.737C135.536 177.399 136.613 177.672 137.813 177.672V175.672C136.901 175.672 136.313 175.465 135.936 175.167L134.697 176.737ZM185.56 155.984H186.56V154.984H185.56V155.984ZM181.624 188.096L180.95 187.358L180.945 187.363L181.624 188.096ZM163.096 190.88L163.345 189.912L163.345 189.912L163.096 190.88ZM157.384 188.336L156.497 187.875L156.097 188.646L156.803 189.15L157.384 188.336ZM160.696 181.952L161.33 181.178L160.376 180.398L159.809 181.491L160.696 181.952ZM164.68 183.968L164.98 183.014L164.968 183.01L164.68 183.968ZM174.76 183.152L175.446 183.88L175.446 183.88L174.76 183.152ZM176.44 177.584H177.44V174.886L175.682 176.932L176.44 177.584ZM162.328 179.12L161.853 180L161.864 180.006L162.328 179.12ZM157.672 174.704L156.815 175.219L156.819 175.225L157.672 174.704ZM157.672 161.552L158.526 162.073L158.53 162.066L157.672 161.552ZM162.328 157.136L162.793 158.022L162.804 158.016L162.328 157.136ZM176.872 159.152L176.061 159.736L177.872 162.252V159.152H176.872ZM176.872 155.984V154.984H175.872V155.984H176.872ZM174.904 171.92L174.231 171.181L174.225 171.186L174.22 171.191L174.904 171.92ZM174.952 164.288L174.268 165.017L174.274 165.022L174.28 165.028L174.952 164.288ZM166.744 164.288L167.417 165.028L167.418 165.027L166.744 164.288ZM166.792 171.92L167.466 171.181L167.466 171.181L166.792 171.92ZM184.56 155.984V177.248H186.56V155.984H184.56ZM184.56 177.248C184.56 181.904 183.3 185.208 180.95 187.358L182.299 188.834C185.197 186.184 186.56 182.256 186.56 177.248H184.56ZM180.945 187.363C178.566 189.568 175.068 190.744 170.296 190.744V192.744C175.38 192.744 179.435 191.488 182.304 188.829L180.945 187.363ZM170.296 190.744C167.812 190.744 165.496 190.464 163.345 189.912L162.847 191.848C165.177 192.448 167.661 192.744 170.296 192.744V190.744ZM163.345 189.912C161.202 189.36 159.416 188.558 157.966 187.522L156.803 189.15C158.489 190.354 160.511 191.248 162.847 191.848L163.345 189.912ZM158.272 188.797L161.584 182.413L159.809 181.491L156.497 187.875L158.272 188.797ZM160.063 182.726C161.241 183.69 162.694 184.416 164.393 184.926L164.968 183.01C163.467 182.56 162.264 181.942 161.33 181.178L160.063 182.726ZM164.381 184.922C166.101 185.462 167.802 185.736 169.48 185.736V183.736C168.023 183.736 166.524 183.498 164.98 183.014L164.381 184.922ZM169.48 185.736C171.998 185.736 174.061 185.186 175.446 183.88L174.074 182.424C173.22 183.23 171.763 183.736 169.48 183.736V185.736ZM175.446 183.88C176.83 182.575 177.44 180.703 177.44 178.448H175.44C175.44 180.353 174.931 181.617 174.074 182.424L175.446 183.88ZM177.44 178.448V177.584H175.44V178.448H177.44ZM175.682 176.932C174.159 178.705 171.894 179.656 168.712 179.656V181.656C172.315 181.656 175.202 180.559 177.199 178.236L175.682 176.932ZM168.712 179.656C166.563 179.656 164.595 179.18 162.793 178.234L161.864 180.006C163.966 181.108 166.254 181.656 168.712 181.656V179.656ZM162.804 178.24C161.007 177.268 159.586 175.92 158.526 174.183L156.819 175.225C158.063 177.264 159.746 178.86 161.853 180L162.804 178.24ZM158.53 174.19C157.482 172.442 156.944 170.416 156.944 168.08H154.944C154.944 170.736 155.559 173.126 156.815 175.218L158.53 174.19ZM156.944 168.08C156.944 165.778 157.48 163.787 158.526 162.073L156.819 161.031C155.56 163.093 154.944 165.454 154.944 168.08H156.944ZM158.53 162.066C159.589 160.301 161.006 158.959 162.793 158.022L161.864 156.25C159.747 157.361 158.06 158.963 156.815 161.038L158.53 162.066ZM162.804 158.016C164.604 157.042 166.568 156.552 168.712 156.552V154.552C166.249 154.552 163.956 155.118 161.853 156.256L162.804 158.016ZM168.712 156.552C172.194 156.552 174.569 157.664 176.061 159.736L177.684 158.568C175.72 155.84 172.654 154.552 168.712 154.552V156.552ZM177.872 159.152V155.984H175.872V159.152H177.872ZM176.872 156.984H185.56V154.984H176.872V156.984ZM170.872 174.408C172.724 174.408 174.324 173.837 175.589 172.649L174.22 171.191C173.373 171.987 172.285 172.408 170.872 172.408V174.408ZM175.578 172.659C176.889 171.464 177.536 169.909 177.536 168.08H175.536C175.536 169.387 175.096 170.392 174.231 171.181L175.578 172.659ZM177.536 168.08C177.536 166.261 176.911 164.718 175.625 163.548L174.28 165.028C175.105 165.778 175.536 166.763 175.536 168.08H177.536ZM175.637 163.559C174.368 162.367 172.75 161.8 170.872 161.8V163.8C172.323 163.8 173.425 164.225 174.268 165.017L175.637 163.559ZM170.872 161.8C168.994 161.8 167.367 162.367 166.071 163.549L167.418 165.027C168.298 164.225 169.423 163.8 170.872 163.8V161.8ZM166.072 163.548C164.785 164.718 164.16 166.261 164.16 168.08H166.16C166.16 166.763 166.591 165.778 167.417 165.028L166.072 163.548ZM164.16 168.08C164.16 169.909 164.808 171.464 166.119 172.659L167.466 171.181C166.601 170.392 166.16 169.387 166.16 168.08H164.16ZM166.119 172.659C167.411 173.838 169.02 174.408 170.872 174.408V172.408C169.46 172.408 168.349 171.986 167.466 171.181L166.119 172.659ZM217.868 171.296V172.296H218.804L218.866 171.363L217.868 171.296ZM198.956 171.296V170.296H197.63L197.995 171.571L198.956 171.296ZM201.164 174.416L200.604 175.244L200.618 175.254L200.632 175.263L201.164 174.416ZM208.556 174.944L208.202 174.009L208.191 174.013L208.556 174.944ZM211.34 173.216L212.061 172.523L211.405 171.84L210.687 172.459L211.34 173.216ZM216.14 178.208L216.884 178.876L217.505 178.185L216.861 177.515L216.14 178.208ZM197.036 180.704L197.483 179.81L197.036 180.704ZM191.66 175.904L190.806 176.424L190.812 176.434L191.66 175.904ZM191.612 162.08L190.758 161.56L190.756 161.564L191.612 162.08ZM196.748 157.28L196.28 156.396L196.28 156.396L196.748 157.28ZM211.148 157.184L210.69 158.073L210.701 158.078L211.148 157.184ZM216.14 161.84L215.28 162.351L215.285 162.358L215.29 162.366L216.14 161.84ZM200.588 163.232L199.948 162.464L199.942 162.469L199.935 162.475L200.588 163.232ZM198.812 166.496L197.829 166.313L197.609 167.496H198.812V166.496ZM209.468 166.496V167.496H210.671L210.451 166.313L209.468 166.496ZM207.644 163.232L206.991 163.989L206.998 163.995L207.004 164L207.644 163.232ZM217.012 169.04C217.012 169.03 217.004 169.183 216.978 169.588C216.954 169.963 216.918 170.51 216.87 171.229L218.866 171.363C218.96 169.959 219.012 169.148 219.012 169.04H217.012ZM217.868 170.296H198.956V172.296H217.868V170.296ZM197.995 171.571C198.439 173.125 199.308 174.368 200.604 175.244L201.724 173.588C200.844 172.992 200.242 172.155 199.918 171.021L197.995 171.571ZM200.632 175.263C201.948 176.09 203.536 176.472 205.34 176.472V174.472C203.816 174.472 202.621 174.15 201.696 173.569L200.632 175.263ZM205.34 176.472C206.678 176.472 207.88 176.284 208.922 175.875L208.191 174.013C207.44 174.308 206.498 174.472 205.34 174.472V176.472ZM208.911 175.879C209.97 175.477 210.997 174.832 211.993 173.973L210.687 172.459C209.828 173.2 208.998 173.707 208.202 174.009L208.911 175.879ZM210.619 173.909L215.419 178.901L216.861 177.515L212.061 172.523L210.619 173.909ZM215.396 177.54C213.109 180.088 209.719 181.432 205.052 181.432V183.432C210.114 183.432 214.116 181.96 216.884 178.876L215.396 177.54ZM205.052 181.432C202.14 181.432 199.626 180.881 197.483 179.81L196.589 181.598C199.055 182.831 201.885 183.432 205.052 183.432V181.432ZM197.483 179.81C195.333 178.734 193.684 177.255 192.508 175.374L190.812 176.434C192.196 178.649 194.132 180.37 196.589 181.598L197.483 179.81ZM192.514 175.384C191.369 173.505 190.788 171.368 190.788 168.944H188.788C188.788 171.704 189.455 174.207 190.806 176.424L192.514 175.384ZM190.788 168.944C190.788 166.55 191.355 164.443 192.468 162.596L190.756 161.564C189.438 163.749 188.788 166.218 188.788 168.944H190.788ZM192.466 162.6C193.618 160.71 195.195 159.234 197.216 158.164L196.28 156.396C193.95 157.63 192.102 159.354 190.758 161.56L192.466 162.6ZM197.216 158.164C199.233 157.096 201.518 156.552 204.092 156.552V154.552C201.226 154.552 198.615 155.16 196.28 156.396L197.216 158.164ZM204.092 156.552C206.54 156.552 208.732 157.064 210.69 158.073L211.606 156.295C209.34 155.128 206.829 154.552 204.092 154.552V156.552ZM210.701 158.078C212.64 159.048 214.161 160.466 215.28 162.351L217 161.329C215.687 159.118 213.88 157.432 211.595 156.29L210.701 158.078ZM215.29 162.366C216.424 164.198 217.012 166.409 217.012 169.04H219.012C219.012 166.103 218.352 163.514 216.99 161.314L215.29 162.366ZM204.14 161.032C202.53 161.032 201.111 161.495 199.948 162.464L201.228 164C201.986 163.369 202.935 163.032 204.14 163.032V161.032ZM199.935 162.475C198.811 163.444 198.12 164.747 197.829 166.313L199.795 166.679C200.016 165.493 200.509 164.62 201.241 163.989L199.935 162.475ZM198.812 167.496H209.468V165.496H198.812V167.496ZM210.451 166.313C210.158 164.737 209.445 163.431 208.284 162.464L207.004 164C207.763 164.633 208.266 165.503 208.485 166.679L210.451 166.313ZM208.297 162.475C207.161 161.495 205.75 161.032 204.14 161.032V163.032C205.346 163.032 206.272 163.369 206.991 163.989L208.297 162.475Z" fill="black"/>
</g>
<defs>
<filter id="filter0_d" x="60.0709" y="75.728" width="167.941" height="128.016" filterUnits="userSpaceOnUse" color-interpolation-filters="sRGB">
<feFlood flood-opacity="0" result="BackgroundImageFix"/>
<feColorMatrix in="SourceAlpha" type="matrix" values="0 0 0 0 0 0 0 0 0 0 0 0 0 0 0 0 0 0 127 0"/>
<feOffset dx="5" dy="7"/>
<feGaussianBlur stdDeviation="2"/>
<feColorMatrix type="matrix" values="0 0 0 0 0 0 0 0 0 0 0 0 0 0 0 0 0 0 0.25 0"/>
<feBlend mode="normal" in2="BackgroundImageFix" result="effect1_dropShadow"/>
<feBlend mode="normal" in="SourceGraphic" in2="effect1_dropShadow" result="shape"/>
</filter>
</defs>
</svg>
