<svg width="93" height="88" viewBox="0 0 93 88" fill="none" xmlns="http://www.w3.org/2000/svg">
<path d="M86.3093 44.2503C86.2064 42.8227 84.9676 41.7512 83.538 41.8516C82.1103 41.9545 81.0364 43.1952 81.1391 44.6229C81.203 45.5048 81.1259 43.9951 81.1259 44.8969C81.1259 65.5589 64.3165 81.1258 43.6547 81.1258C22.993 81.1258 6.18356 64.3162 6.18356 43.6544C6.18356 22.9927 22.993 6.18325 43.6549 6.18325C51.8376 6.18325 59.6088 8.77269 66.1279 13.6714C67.2723 14.5311 68.8967 14.3006 69.7566 13.1565C70.6168 12.0122 70.3862 10.3874 69.2419 9.52766C61.8174 3.94884 52.9696 1 43.6547 1C20.1351 0.999811 1.00012 20.1348 1.00012 43.6544C1.00012 67.1741 20.1351 86.3088 43.6549 86.3088C67.1748 86.3088 86.3093 68.4168 86.3093 44.8969C86.3093 43.8712 86.3815 45.2559 86.3093 44.2503Z" fill="#42B983" stroke="#42B983" stroke-width="2"/>
<path d="M89.3595 14.6406C85.8386 11.1198 80.1094 11.1198 76.5885 14.6406L43.2352 47.9935L31.4118 36.1698C27.8908 32.6491 22.1617 32.6491 18.6407 36.1698C15.1198 39.6908 15.1198 45.42 18.6407 48.9409L39.0038 69.304C40.1705 70.4707 41.7029 71.0539 43.2352 71.0539C44.7678 71.0539 46.3002 70.4707 47.4669 69.304L89.3595 27.4113C92.8802 23.8905 92.8802 18.1617 89.3595 14.6406ZM86.086 24.1379L44.1931 66.0309C43.6652 66.5588 42.8056 66.5588 42.2777 66.0309L21.9146 45.6677C20.1986 43.9517 20.1986 41.1599 21.9146 39.4439C22.7725 38.5857 23.8993 38.1569 25.0264 38.1569C26.1535 38.1569 27.2805 38.5858 28.1382 39.4439L40.3015 51.6072C41.0852 52.3908 42.1274 52.8223 43.2354 52.8223C44.3439 52.8223 45.3861 52.3906 46.1697 51.607L79.8622 17.9141C81.5777 16.1982 84.37 16.1982 86.086 17.9141C87.8018 19.6301 87.8018 22.4219 86.086 24.1379Z" fill="#42B983" stroke="#42B983" stroke-width="2"/>
</svg>
