<svg width="22" height="22" viewBox="0 0 22 22" fill="none" xmlns="http://www.w3.org/2000/svg">
<path d="M18.7765 6.84462C18.939 7.01733 19.0229 7.2493 19.0085 7.48579L18.5742 14.6186C18.5455 15.0924 18.138 15.453 17.6644 15.4243C17.1905 15.3954 16.83 14.988 16.8587 14.5142L17.2374 8.29297H4.76265L5.39409 18.6669C5.44914 19.5721 6.20277 20.2812 7.10965 20.2812H14.8904C15.7974 20.2812 16.5509 19.5721 16.6061 18.6669C16.6348 18.1932 17.0423 17.8327 17.516 17.8614C17.9898 17.8901 18.3503 18.2976 18.3216 18.7713C18.2114 20.5819 16.7043 22 14.8904 22H7.10965C5.29573 22 3.78864 20.5819 3.67836 18.7713L2.99153 7.48579C2.9771 7.2493 3.06102 7.01733 3.2235 6.84462C3.38597 6.67207 3.6124 6.57422 3.8494 6.57422H18.1506C18.3876 6.57422 18.614 6.67207 18.7765 6.84462ZM20.2812 3.99324C20.2812 4.46791 19.8965 4.85262 19.4219 4.85262H2.57812C2.10345 4.85262 1.71875 4.46791 1.71875 3.99324C1.71875 3.51857 2.10345 3.13387 2.57812 3.13387H7.14691C7.30133 1.3802 8.77721 0 10.5703 0H11.4297C13.2228 0 14.6987 1.3802 14.8531 3.13387H19.4219C19.8965 3.13387 20.2812 3.51857 20.2812 3.99324ZM8.87892 3.13387H13.1211C12.9772 2.33055 12.2738 1.71875 11.4297 1.71875H10.5703C9.72621 1.71875 9.02277 2.33055 8.87892 3.13387ZM10.1406 10.8711V17.7461C10.1406 18.2208 10.5253 18.6055 11 18.6055C11.4747 18.6055 11.8594 18.2208 11.8594 17.7461V10.8711C11.8594 10.3964 11.4747 10.0117 11 10.0117C10.5253 10.0117 10.1406 10.3964 10.1406 10.8711ZM7.52809 11.3015C7.05392 11.3204 6.68483 11.7202 6.7038 12.1946L6.87567 16.4914C6.89413 16.9539 7.27498 17.3164 7.7337 17.3164C7.74545 17.3164 7.75703 17.3162 7.76878 17.3157C8.24295 17.2968 8.61205 16.8968 8.59308 16.4226L8.4212 12.1257C8.40224 11.6516 8.00192 11.2813 7.52809 11.3015ZM13.5788 12.1257L13.4069 16.4226C13.388 16.897 13.757 17.2968 14.2312 17.3157C14.243 17.3162 14.2545 17.3164 14.2663 17.3164C14.725 17.3164 15.1059 16.9539 15.1243 16.4914L15.2962 12.1946C15.3152 11.7202 14.9461 11.3204 14.4719 11.3015C13.9977 11.2813 13.5978 11.6516 13.5788 12.1257Z" fill="#EB5757"/>
</svg>
